HIERARCHY
ROOT Hips
{
	OFFSET 0.000000 100.481300 0.000000
	CHANNELS 6 Xposition Yposition Zposition Xrotation Yrotation Zrotation
	JOINT Spine
	{
		OFFSET -0.279200 12.230698 -2.892100
		CHANNELS 3 Xrotation Yrotation Zrotation
		JOINT Spine1
		{
			OFFSET -0.325700 14.269203 -3.374200
			CHANNELS 3 Xrotation Yrotation Zrotation
			JOINT Spine2
			{
				OFFSET -0.372300 16.307602 -0.352600
				CHANNELS 3 Xrotation Yrotation Zrotation
				JOINT Neck
				{
					OFFSET -0.418800 17.814194 8.416900
					CHANNELS 3 Xrotation Yrotation Zrotation
					JOINT Head
					{
						OFFSET 0.000000 7.031097 3.806800
						CHANNELS 3 Xrotation Yrotation Zrotation
						JOINT HeadTop_End
						{
							OFFSET 0.000000 24.646606 12.978600
							CHANNELS 3 Xrotation Yrotation Zrotation
							End Site
							{
								OFFSET 0.000000 27.854965 0.000000
							}
						}
					}
				}
				JOINT LeftShoulder
				{
					OFFSET 16.952999 14.495407 -7.737500
					CHANNELS 3 Xrotation Yrotation Zrotation
					JOINT LeftArm
					{
						OFFSET 9.308998 -2.777710 0.208600
						CHANNELS 3 Xrotation Yrotation Zrotation
						JOINT LeftForeArm
						{
							OFFSET 29.972298 0.000000 0.000000
							CHANNELS 3 Xrotation Yrotation Zrotation
							JOINT LeftHand
							{
								OFFSET 26.026505 0.000000 0.000000
								CHANNELS 3 Xrotation Yrotation Zrotation
								JOINT LeftHandThumb1
								{
									OFFSET 12.240501 -7.147949 9.207150
									CHANNELS 3 Xrotation Yrotation Zrotation
									JOINT LeftHandThumb2
									{
										OFFSET 4.138618 -2.389435 2.389433
										CHANNELS 3 Xrotation Yrotation Zrotation
										JOINT LeftHandThumb3
										{
											OFFSET 2.726913 -1.574387 1.574386
											CHANNELS 3 Xrotation Yrotation Zrotation
											JOINT LeftHandThumb4
											{
												OFFSET 3.941010 -2.275345 2.275342
												CHANNELS 3 Xrotation Yrotation Zrotation
												End Site
												{
													OFFSET -0.005798 5.087799 0.009903
												}
											}
										}
									}
								}
								JOINT LeftHandIndex1
								{
									OFFSET 24.424698 -1.985611 5.953459
									CHANNELS 3 Xrotation Yrotation Zrotation
									JOINT LeftHandIndex2
									{
										OFFSET 6.426697 0.000000 0.000000
										CHANNELS 3 Xrotation Yrotation Zrotation
										JOINT LeftHandIndex3
										{
											OFFSET 5.337898 0.000000 0.000000
											CHANNELS 3 Xrotation Yrotation Zrotation
											JOINT LeftHandIndex4
											{
												OFFSET 4.409401 0.000000 0.000000
												CHANNELS 3 Xrotation Yrotation Zrotation
												End Site
												{
													OFFSET 0.000000 4.409363 0.014373
												}
											}
										}
									}
								}
								JOINT LeftHandMiddle1
								{
									OFFSET 23.810104 0.000000 0.000000
									CHANNELS 3 Xrotation Yrotation Zrotation
									JOINT LeftHandMiddle2
									{
										OFFSET 7.176498 0.000000 0.000000
										CHANNELS 3 Xrotation Yrotation Zrotation
										JOINT LeftHandMiddle3
										{
											OFFSET 6.774902 0.000000 0.000000
											CHANNELS 3 Xrotation Yrotation Zrotation
											JOINT LeftHandMiddle4
											{
												OFFSET 5.403328 0.000000 0.000000
												CHANNELS 3 Xrotation Yrotation Zrotation
												End Site
												{
													OFFSET -0.027702 5.403244 0.017414
												}
											}
										}
									}
								}
								JOINT LeftHandRing1
								{
									OFFSET 22.908401 -0.839279 -6.020567
									CHANNELS 3 Xrotation Yrotation Zrotation
									JOINT LeftHandRing2
									{
										OFFSET 6.337502 0.000000 0.000000
										CHANNELS 3 Xrotation Yrotation Zrotation
										JOINT LeftHandRing3
										{
											OFFSET 5.779297 0.000000 0.000000
											CHANNELS 3 Xrotation Yrotation Zrotation
											JOINT LeftHandRing4
											{
												OFFSET 4.965698 0.000000 0.000000
												CHANNELS 3 Xrotation Yrotation Zrotation
												End Site
												{
													OFFSET 0.000000 4.965668 0.016186
												}
											}
										}
									}
								}
								JOINT LeftHandPinky1
								{
									OFFSET 20.037003 -1.530319 -10.950146
									CHANNELS 3 Xrotation Yrotation Zrotation
									JOINT LeftHandPinky2
									{
										OFFSET 5.254700 0.000000 0.000000
										CHANNELS 3 Xrotation Yrotation Zrotation
										JOINT LeftHandPinky3
										{
											OFFSET 4.810204 0.000000 0.000000
											CHANNELS 3 Xrotation Yrotation Zrotation
											JOINT LeftHandPinky4
											{
												OFFSET 3.647202 0.000000 0.000000
												CHANNELS 3 Xrotation Yrotation Zrotation
												End Site
												{
													OFFSET 0.000000 3.647186 0.011889
												}
											}
										}
									}
								}
							}
						}
					}
				}
				JOINT RightShoulder
				{
					OFFSET -15.141001 14.495407 -7.737500
					CHANNELS 3 Xrotation Yrotation Zrotation
					JOINT RightArm
					{
						OFFSET -9.308998 -2.777710 0.208500
						CHANNELS 3 Xrotation Yrotation Zrotation
						JOINT RightForeArm
						{
							OFFSET -29.972300 0.000000 0.000000
							CHANNELS 3 Xrotation Yrotation Zrotation
							JOINT RightHand
							{
								OFFSET -26.026505 0.000000 0.000000
								CHANNELS 3 Xrotation Yrotation Zrotation
								JOINT RightHandThumb1
								{
									OFFSET -12.240601 -7.148026 9.207092
									CHANNELS 3 Xrotation Yrotation Zrotation
									JOINT RightHandThumb2
									{
										OFFSET -4.138618 -2.389435 2.389433
										CHANNELS 3 Xrotation Yrotation Zrotation
										JOINT RightHandThumb3
										{
											OFFSET -2.726974 -1.574417 1.574421
											CHANNELS 3 Xrotation Yrotation Zrotation
											JOINT RightHandThumb4
											{
												OFFSET -3.941010 -2.275345 2.275343
												CHANNELS 3 Xrotation Yrotation Zrotation
												End Site
												{
													OFFSET 0.005814 5.087799 0.009927
												}
											}
										}
									}
								}
								JOINT RightHandIndex1
								{
									OFFSET -24.424698 -1.985657 5.953444
									CHANNELS 3 Xrotation Yrotation Zrotation
									JOINT RightHandIndex2
									{
										OFFSET -6.426697 0.000000 0.000000
										CHANNELS 3 Xrotation Yrotation Zrotation
										JOINT RightHandIndex3
										{
											OFFSET -5.337898 0.000000 0.000000
											CHANNELS 3 Xrotation Yrotation Zrotation
											JOINT RightHandIndex4
											{
												OFFSET -4.409401 0.000000 0.000000
												CHANNELS 3 Xrotation Yrotation Zrotation
												End Site
												{
													OFFSET 0.000000 4.409363 0.014408
												}
											}
										}
									}
								}
								JOINT RightHandMiddle1
								{
									OFFSET -23.810097 0.000000 0.000000
									CHANNELS 3 Xrotation Yrotation Zrotation
									JOINT RightHandMiddle2
									{
										OFFSET -7.176498 0.000000 0.000000
										CHANNELS 3 Xrotation Yrotation Zrotation
										JOINT RightHandMiddle3
										{
											OFFSET -6.774902 0.000000 0.000000
											CHANNELS 3 Xrotation Yrotation Zrotation
											JOINT RightHandMiddle4
											{
												OFFSET -5.403328 0.000000 0.000000
												CHANNELS 3 Xrotation Yrotation Zrotation
												End Site
												{
													OFFSET 0.027702 5.403244 0.017457
												}
											}
										}
									}
								}
								JOINT RightHandRing1
								{
									OFFSET -22.908302 -0.839325 -6.020576
									CHANNELS 3 Xrotation Yrotation Zrotation
									JOINT RightHandRing2
									{
										OFFSET -6.337502 0.000000 0.000000
										CHANNELS 3 Xrotation Yrotation Zrotation
										JOINT RightHandRing3
										{
											OFFSET -5.779297 0.000000 0.000000
											CHANNELS 3 Xrotation Yrotation Zrotation
											JOINT RightHandRing4
											{
												OFFSET -4.965698 0.000000 0.000000
												CHANNELS 3 Xrotation Yrotation Zrotation
												End Site
												{
													OFFSET 0.000000 4.965668 0.016226
												}
											}
										}
									}
								}
								JOINT RightHandPinky1
								{
									OFFSET -20.037003 -1.530334 -10.950259
									CHANNELS 3 Xrotation Yrotation Zrotation
									JOINT RightHandPinky2
									{
										OFFSET -5.254700 0.000000 0.000000
										CHANNELS 3 Xrotation Yrotation Zrotation
										JOINT RightHandPinky3
										{
											OFFSET -4.810204 0.000000 0.000000
											CHANNELS 3 Xrotation Yrotation Zrotation
											JOINT RightHandPinky4
											{
												OFFSET -3.647202 0.000000 0.000000
												CHANNELS 3 Xrotation Yrotation Zrotation
												End Site
												{
													OFFSET 0.000000 3.647186 0.011917
												}
											}
										}
									}
								}
							}
						}
					}
				}
			}
		}
	}
	JOINT LeftUpLeg
	{
		OFFSET 15.427100 -6.655098 0.678600
		CHANNELS 3 Xrotation Yrotation Zrotation
		JOINT LeftLeg
		{
			OFFSET 4.081073 -39.591068 13.024000
			CHANNELS 3 Xrotation Yrotation Zrotation
			JOINT LeftFoot
			{
				OFFSET -4.081074 -37.707932 -15.979700
				CHANNELS 3 Xrotation Yrotation Zrotation
				JOINT LeftToeBase
				{
					OFFSET 5.346399 -15.068900 20.645000
					CHANNELS 3 Xrotation Yrotation Zrotation
					JOINT LeftToe_End
					{
						OFFSET 2.754700 0.931300 11.300900
						CHANNELS 3 Xrotation Yrotation Zrotation
						End Site
						{
							OFFSET 0.000000 11.669021 0.000000
						}
					}
				}
			}
		}
	}
	JOINT RightUpLeg
	{
		OFFSET -15.569500 -6.655098 0.678600
		CHANNELS 3 Xrotation Yrotation Zrotation
		JOINT RightLeg
		{
			OFFSET -4.081825 -39.591045 13.023800
			CHANNELS 3 Xrotation Yrotation Zrotation
			JOINT RightFoot
			{
				OFFSET 4.081824 -37.707954 -15.979600
				CHANNELS 3 Xrotation Yrotation Zrotation
				JOINT RightToeBase
				{
					OFFSET -5.346400 -15.068900 20.645000
					CHANNELS 3 Xrotation Yrotation Zrotation
					JOINT RightToe_End
					{
						OFFSET -2.754700 0.931300 11.300900
						CHANNELS 3 Xrotation Yrotation Zrotation
						End Site
						{
							OFFSET 0.000000 11.669021 0.000000
						}
					}
				}
			}
		}
	}
}
MOTION
Frames: 4
Frame Time: 0.033333
0.169425 95.873497 -1.291488 -1.905273 -9.911847 0.927232 1.986926 -16.741721 -2.508327 2.489942 0.143215 -0.798923 2.503740 0.160045 -0.694041 4.672316 2.893286 7.735118 9.612682 25.620084 -6.182960 -0.000002 -0.000000 0.000000 1.060480 -6.515481 7.734869 -48.597411 2.964028 -82.937423 -0.000072 -80.825481 -0.000069 -58.959825 35.282701 15.486470 16.805926 -17.314390 11.499939 1.687161 9.929931 19.896141 -1.695691 2.467139 11.969696 -0.000001 0.000001 0.000000 2.398523 5.226115 -49.281690 2.224503 5.071767 -47.342814 0.579031 2.768489 -23.622148 0.000000 0.000000 -0.000000 2.397055 5.224861 -49.265581 2.225937 5.073064 -47.358933 0.579028 2.768487 -23.622144 -0.000000 -0.000003 0.000000 2.398523 5.226115 -49.281686 2.224505 5.071766 -47.342811 0.579032 2.768490 -23.622143 0.000000 -0.000001 0.000000 5.487636 7.875756 -49.123882 2.243161 1.000646 -47.695016 0.579038 2.768487 -23.622151 0.000000 0.000001 -0.000001 0.625011 -0.702874 9.858823 -27.845098 45.975677 65.272047 0.000081 103.031184 -0.000100 -36.061647 -20.819083 -35.253127 56.672310 4.603456 19.957067 8.792338 -50.935296 -19.654824 4.099134 -20.497147 -11.073068 -0.000000 -0.000000 -0.000000 5.163706 -6.716247 75.082876 8.621732 -6.744646 103.969973 2.651277 -5.465363 51.730497 -0.000003 0.000001 -0.000002 5.163705 -6.716246 75.082876 8.621738 -6.744647 103.969973 2.651277 -5.465363 51.730494 0.000000 0.000001 -0.000004 5.163705 -6.716249 75.082883 8.621740 -6.744649 103.969980 2.651276 -5.465362 51.730497 0.000001 0.000001 -0.000001 5.163706 -6.716247 75.082876 8.621747 -6.744655 103.969973 2.651273 -5.465356 51.730497 -0.000000 -0.000001 0.000000 -24.699385 9.750212 7.120535 10.115397 10.146337 -0.925088 -2.767084 3.338625 -1.589326 -10.645161 -0.000000 -0.000001 0.000002 0.000000 -0.000000 11.396696 -8.391040 -1.328815 10.336732 -9.096590 -0.947969 -18.680902 -3.899993 1.548705 -1.313804 -0.000011 -0.000001 0.000000 0.000001 -0.000000 
0.585704 95.120293 2.471614 -1.459656 -10.469637 1.223398 1.912044 -16.712923 -2.708072 2.467809 0.169011 -0.811691 2.480745 0.185394 -0.707753 4.680694 2.897448 7.717395 9.586187 25.619515 -6.199857 0.000001 0.000000 0.000000 1.054797 -6.495259 7.705009 -48.487288 2.885511 -83.002522 -0.000170 -80.871154 -0.000190 -58.897759 35.275069 15.486380 16.805923 -17.314374 11.499935 1.810321 9.734578 19.867827 -1.653426 2.360313 11.962782 -0.000001 -0.000001 0.000000 2.398522 5.226113 -49.281683 2.241379 5.087194 -47.533479 0.583620 2.778941 -23.716968 -0.000000 0.000000 -0.000002 2.397055 5.224854 -49.265577 2.242809 5.088500 -47.549585 0.583610 2.778945 -23.716953 0.000000 -0.000001 0.000001 2.398523 5.226114 -49.281683 2.241380 5.087198 -47.533479 0.583622 2.778940 -23.716966 0.000001 0.000001 -0.000000 5.487633 7.875759 -49.123865 2.260069 1.015974 -47.884489 0.583615 2.778946 -23.716954 -0.000000 0.000001 -0.000000 0.626960 -0.689923 9.861373 -27.810638 45.958311 65.229208 0.000074 102.999055 -0.000083 -36.041330 -20.702242 -35.314530 56.672303 4.603460 19.957060 8.792337 -50.935296 -19.654824 4.099133 -20.497150 -11.073068 0.000000 -0.000002 0.000000 5.163705 -6.716246 75.082869 8.621732 -6.744644 103.969980 2.651279 -5.465365 51.730497 -0.000000 0.000001 -0.000003 5.163705 -6.716246 75.082876 8.621738 -6.744646 103.969980 2.651277 -5.465364 51.730490 0.000001 0.000000 0.000000 5.163706 -6.716248 75.082883 8.621739 -6.744650 103.969973 2.651277 -5.465365 51.730497 0.000002 0.000001 -0.000004 5.163706 -6.716246 75.082876 8.621748 -6.744655 103.969980 2.651275 -5.465359 51.730497 -0.000000 0.000000 -0.000000 -27.145299 9.819035 6.432898 10.343703 10.351467 -1.019673 -4.998751 7.047883 1.313919 -10.301576 0.000003 -0.000002 0.000001 0.000003 0.000000 12.841161 -8.919724 -2.551274 11.399625 -8.972234 -0.957103 -20.257055 -3.791836 2.819378 -2.680614 0.000002 0.000001 0.000000 0.000000 0.000000 
1.107537 94.215340 6.361681 -1.142546 -10.997935 1.621502 1.882408 -16.641479 -2.778138 2.452082 0.185270 -0.825469 2.464384 0.201096 -0.722331 4.678503 2.901251 7.696882 9.553085 25.611760 -6.206010 0.000001 -0.000000 -0.000000 1.051354 -6.480498 7.681636 -48.478985 2.861879 -83.036816 -0.000201 -80.843007 -0.000203 -58.905225 35.295569 15.469764 16.805937 -17.314378 11.499922 2.150379 9.189389 19.794407 -1.536906 2.062498 11.945687 0.000001 -0.000002 -0.000001 2.398534 5.226115 -49.281690 2.287555 5.128943 -48.052269 0.596186 2.807350 -23.974913 -0.000000 0.000002 0.000000 2.397058 5.224866 -49.265571 2.289031 5.130215 -48.068426 0.596187 2.807342 -23.974924 -0.000001 -0.000002 0.000001 2.398535 5.226117 -49.281690 2.287553 5.128947 -48.052273 0.596188 2.807342 -23.974912 -0.000002 0.000002 -0.000001 5.487633 7.875769 -49.123871 2.306346 1.057423 -48.400032 0.596191 2.807341 -23.974929 -0.000000 -0.000000 0.000001 0.628187 -0.678939 9.863167 -27.796648 45.960753 65.211395 0.000203 102.969357 -0.000218 -36.020905 -20.599420 -35.376548 56.672303 4.603466 19.957065 8.792334 -50.935296 -19.654827 4.099135 -20.497147 -11.073070 -0.000000 0.000000 -0.000000 5.163706 -6.716248 75.082876 8.621732 -6.744644 103.969980 2.651278 -5.465365 51.730497 -0.000002 0.000000 -0.000003 5.163705 -6.716247 75.082876 8.621736 -6.744645 103.969980 2.651277 -5.465361 51.730497 -0.000000 -0.000000 0.000001 5.163705 -6.716250 75.082883 8.621740 -6.744650 103.969973 2.651277 -5.465364 51.730500 0.000002 -0.000001 -0.000000 5.163706 -6.716248 75.082876 8.621746 -6.744653 103.969980 2.651275 -5.465357 51.730497 0.000001 -0.000000 -0.000001 -28.361182 9.541148 5.255599 13.325384 11.470360 -0.721688 -7.599365 7.282935 3.211032 -9.855131 0.000003 -0.000000 0.000003 0.000000 0.000000 13.822784 -9.180227 -4.247901 13.548287 -8.986285 -0.866070 -21.456708 -3.682281 4.287548 -5.108411 0.000021 0.000002 0.000000 0.000000 -0.000000 
1.789852 92.610344 10.785337 -1.002105 -11.424396 1.746242 2.010168 -16.592568 -2.379910 2.451008 0.193463 -0.861966 2.462985 0.207914 -0.759377 4.673359 2.904682 7.678225 9.524647 25.603954 -6.207413 -0.000000 0.000000 -0.000001 1.053852 -6.483305 7.673290 -48.568447 2.923610 -83.031973 0.000125 -80.742344 0.000141 -59.004570 35.353548 15.402932 16.805928 -17.314391 11.499925 2.662240 8.352459 19.697547 -1.362167 1.605981 11.925780 -0.000000 -0.000000 -0.000001 2.398537 5.226125 -49.281700 2.356699 5.189980 -48.821062 0.615047 2.849329 -24.357103 0.000000 -0.000000 0.000000 2.397071 5.224862 -49.265584 2.358150 5.191252 -48.837154 0.615054 2.849333 -24.357110 -0.000000 -0.000001 -0.000000 2.398538 5.226123 -49.281700 2.356700 5.189983 -48.821058 0.615048 2.849327 -24.357105 -0.000002 0.000001 -0.000000 5.487638 7.875772 -49.123878 2.375597 1.118047 -49.163903 0.615048 2.849332 -24.357097 0.000001 -0.000000 0.000001 0.627405 -0.676503 9.862476 -27.827065 45.998309 65.249303 -0.000119 102.960969 0.000112 -36.020659 -20.567928 -35.409473 56.672286 4.603477 19.957079 8.792333 -50.935296 -19.654826 4.099132 -20.497143 -11.073069 0.000000 -0.000000 -0.000000 5.163705 -6.716246 75.082876 8.621732 -6.744644 103.969980 2.651278 -5.465365 51.730497 0.000002 0.000000 -0.000001 5.163705 -6.716245 75.082876 8.621737 -6.744647 103.969980 2.651276 -5.465365 51.730497 0.000002 0.000000 -0.000002 5.163705 -6.716248 75.082883 8.621738 -6.744649 103.969973 2.651279 -5.465363 51.730497 0.000002 -0.000000 -0.000000 5.163705 -6.716246 75.082876 8.621747 -6.744653 103.969980 2.651275 -5.465359 51.730497 -0.000002 -0.000000 0.000001 -29.611329 9.240243 3.815731 17.361197 10.850909 0.738831 -3.589171 9.178935 3.726155 -9.319401 -0.000005 -0.000000 0.000001 -0.000001 -0.000001 14.653947 -9.354621 -6.064722 17.343210 -8.970961 -0.534740 -23.191508 -3.827846 5.338192 -9.001009 0.000013 0.000003 0.000000 0.000001 0.000000 
